<svg xmlns="http://www.w3.org/2000/svg" xmlns:xlink="http://www.w3.org/1999/xlink" width="2143" zoomAndPan="magnify" viewBox="0 0 1607.25 932.249976" height="1243" preserveAspectRatio="xMidYMid meet" version="1.0"><defs><g/><clipPath id="581d4c887d"><rect x="0" width="464" y="0" height="614"/></clipPath></defs><g fill="#3c4455" fill-opacity="1"><g transform="translate(101.545997, 582.592307)"><g><path d="M 36.171875 -253.1875 L 72.34375 -253.1875 L 72.34375 -36.171875 L 217.015625 -36.171875 L 217.015625 0 L 36.171875 0 Z M 36.171875 -253.1875 "/></g></g></g><g fill="#3c4455" fill-opacity="1"><g transform="translate(302.934697, 582.592307)"><g><path d="M 36.171875 -180.84375 L 217.015625 -180.84375 L 217.015625 0 L 36.171875 0 Z M 72.34375 -144.671875 L 72.34375 -36.171875 L 180.84375 -36.171875 L 180.84375 -144.671875 Z M 72.34375 -144.671875 "/></g></g></g><g fill="#3c4455" fill-opacity="1"><g transform="translate(504.323398, 582.592307)"><g><path d="M 36.171875 -180.84375 L 217.015625 -180.84375 L 217.015625 -144.671875 L 72.34375 -144.671875 L 72.34375 -36.171875 L 217.015625 -36.171875 L 217.015625 0 L 36.171875 0 Z M 36.171875 -180.84375 "/></g></g></g><g transform="matrix(1, 0, 0, 1, 703, 155)"><g clip-path="url(#581d4c887d)"><g fill="#3d9040" fill-opacity="1"><g transform="translate(6.661893, 422.632755)"><g><path d="M 93.109375 -279.34375 L 93.109375 -186.234375 L 232.78125 -186.234375 L 232.78125 -279.34375 Z M 46.5625 -325.90625 L 279.34375 -325.90625 L 279.34375 0 L 232.78125 0 L 232.78125 -139.671875 L 93.109375 -139.671875 L 93.109375 0 L 46.5625 0 Z M 46.5625 -325.90625 "/></g></g></g><g fill="#3d9040" fill-opacity="1"><g transform="translate(265.844746, 422.632755)"><g><path d="M 46.5625 -325.90625 L 186.234375 -325.90625 L 186.234375 -279.34375 L 139.671875 -279.34375 L 139.671875 -46.5625 L 186.234375 -46.5625 L 186.234375 0 L 46.5625 0 L 46.5625 -46.5625 L 93.109375 -46.5625 L 93.109375 -279.34375 L 46.5625 -279.34375 Z M 46.5625 -325.90625 "/></g></g></g></g></g><g fill="#3c4455" fill-opacity="1"><g transform="translate(1153.40932, 583.716403)"><g><path d="M 36.5625 -255.984375 L 109.703125 -255.984375 L 109.703125 -36.5625 L 146.28125 -36.5625 L 146.28125 0 L 73.140625 0 L 73.140625 -219.421875 L 36.5625 -219.421875 Z M 36.5625 -255.984375 "/></g></g></g><g fill="#3c4455" fill-opacity="1"><g transform="translate(1283.890536, 583.716403)"><g><path d="M 36.5625 -182.84375 L 73.140625 -182.84375 L 73.140625 -36.5625 L 182.84375 -36.5625 L 182.84375 -182.84375 L 219.421875 -182.84375 L 219.421875 73.140625 L 36.5625 73.140625 L 36.5625 36.5625 L 182.84375 36.5625 L 182.84375 0 L 36.5625 0 Z M 36.5625 -182.84375 "/></g></g></g></svg>